<?xml version="1.0" encoding="UTF-8" standalone="no"?>
<!DOCTYPE svg PUBLIC "-//W3C//DTD SVG 1.1//EN"
 "http://www.w3.org/Graphics/SVG/1.1/DTD/svg11.dtd">
<!-- Generated by graphviz version 2.40.1 (20161225.0304)
 -->
<!-- Title: dependencies Pages: 1 -->
<svg width="1188pt" height="284pt"
 viewBox="0.00 0.00 1188.00 284.00" xmlns="http://www.w3.org/2000/svg" xmlns:xlink="http://www.w3.org/1999/xlink">
<g id="graph0" class="graph" transform="scale(1 1) rotate(0) translate(4 280)">
<title>dependencies</title>
<polygon fill="#ffffff" stroke="transparent" points="-4,4 -4,-280 1184,-280 1184,4 -4,4"/>
<text text-anchor="start" x="569.0091" y="-42.4" font-family="sans-serif" font-weight="bold" font-size="14.00" fill="#000000">Legend</text>
<polygon fill="#ffffb3" stroke="transparent" points="356,-10 356,-30 376,-30 376,-10 356,-10"/>
<text text-anchor="start" x="379.629" y="-15.4" font-family="sans-serif" font-size="14.00" fill="#000000"> &#160;Declarations</text>
<polygon fill="#8dd3c7" stroke="transparent" points="469,-10 469,-30 489,-30 489,-10 469,-10"/>
<text text-anchor="start" x="492.7251" y="-15.4" font-family="sans-serif" font-size="14.00" fill="#000000"> &#160;Module</text>
<polygon fill="#80b1d3" stroke="transparent" points="555,-10 555,-30 575,-30 575,-10 555,-10"/>
<text text-anchor="start" x="578.7812" y="-15.4" font-family="sans-serif" font-size="14.00" fill="#000000"> &#160;Bootstrap</text>
<polygon fill="#fdb462" stroke="transparent" points="652,-10 652,-30 672,-30 672,-10 652,-10"/>
<text text-anchor="start" x="675.6732" y="-15.4" font-family="sans-serif" font-size="14.00" fill="#000000"> &#160;Providers</text>
<polygon fill="#fb8072" stroke="transparent" points="748,-10 748,-30 768,-30 768,-10 748,-10"/>
<text text-anchor="start" x="771.7258" y="-15.4" font-family="sans-serif" font-size="14.00" fill="#000000"> &#160;Exports</text>
<g id="clust1" class="cluster">
<title>cluster_AppModule</title>
<polygon fill="none" stroke="#000000" stroke-dasharray="1,5" points="8,-70 8,-268 1172,-268 1172,-70 8,-70"/>
</g>
<g id="clust2" class="cluster">
<title>cluster_AppModule_declarations</title>
<polygon fill="none" stroke="#000000" points="16,-78 16,-130 1164,-130 1164,-78 16,-78"/>
</g>
<g id="clust12" class="cluster">
<title>cluster_AppModule_bootstrap</title>
<polygon fill="none" stroke="#000000" points="532,-208 532,-260 656,-260 656,-208 532,-208"/>
</g>
<!-- AppComponent -->
<g id="node1" class="node">
<title>AppComponent</title>
<polygon fill="#ffffb3" stroke="#000000" points="1155.9399,-122 1050.0601,-122 1050.0601,-86 1155.9399,-86 1155.9399,-122"/>
<text text-anchor="middle" x="1103" y="-99.8" font-family="Times,serif" font-size="14.00" fill="#000000">AppComponent</text>
</g>
<!-- AppModule -->
<g id="node8" class="node">
<title>AppModule</title>
<polygon fill="#8dd3c7" stroke="#000000" points="635.6571,-187 632.6571,-191 611.6571,-191 608.6571,-187 552.3429,-187 552.3429,-151 635.6571,-151 635.6571,-187"/>
<text text-anchor="middle" x="594" y="-164.8" font-family="Times,serif" font-size="14.00" fill="#000000">AppModule</text>
</g>
<!-- AppComponent&#45;&gt;AppModule -->
<g id="edge1" class="edge">
<title>AppComponent&#45;&gt;AppModule</title>
<path fill="none" stroke="#000000" d="M1103,-122.2921C1103,-144.2057 1103,-178 1103,-178 1103,-178 646.0866,-178 646.0866,-178"/>
<polygon fill="#000000" stroke="#000000" points="646.0867,-174.5001 636.0866,-178 646.0866,-181.5001 646.0867,-174.5001"/>
</g>
<!-- ParagraphsTableComponent -->
<g id="node2" class="node">
<title>ParagraphsTableComponent</title>
<polygon fill="#ffffb3" stroke="#000000" points="1032.8975,-122 857.1025,-122 857.1025,-86 1032.8975,-86 1032.8975,-122"/>
<text text-anchor="middle" x="945" y="-99.8" font-family="Times,serif" font-size="14.00" fill="#000000">ParagraphsTableComponent</text>
</g>
<!-- ParagraphsTableComponent&#45;&gt;AppModule -->
<g id="edge2" class="edge">
<title>ParagraphsTableComponent&#45;&gt;AppModule</title>
<path fill="none" stroke="#000000" d="M945,-122.1061C945,-141.3391 945,-169 945,-169 945,-169 645.9902,-169 645.9902,-169"/>
<polygon fill="#000000" stroke="#000000" points="645.9902,-165.5001 635.9902,-169 645.9901,-172.5001 645.9902,-165.5001"/>
</g>
<!-- PpUrlSearchComponent -->
<g id="node3" class="node">
<title>PpUrlSearchComponent</title>
<polygon fill="#ffffb3" stroke="#000000" points="839.3599,-122 686.6401,-122 686.6401,-86 839.3599,-86 839.3599,-122"/>
<text text-anchor="middle" x="763" y="-99.8" font-family="Times,serif" font-size="14.00" fill="#000000">PpUrlSearchComponent</text>
</g>
<!-- PpUrlSearchComponent&#45;&gt;AppModule -->
<g id="edge3" class="edge">
<title>PpUrlSearchComponent&#45;&gt;AppModule</title>
<path fill="none" stroke="#000000" d="M763,-122.027C763,-138.3976 763,-160 763,-160 763,-160 645.7753,-160 645.7753,-160"/>
<polygon fill="#000000" stroke="#000000" points="645.7753,-156.5001 635.7753,-160 645.7753,-163.5001 645.7753,-156.5001"/>
</g>
<!-- ProgressBarComponent -->
<g id="node4" class="node">
<title>ProgressBarComponent</title>
<polygon fill="#ffffb3" stroke="#000000" points="668.752,-122 519.248,-122 519.248,-86 668.752,-86 668.752,-122"/>
<text text-anchor="middle" x="594" y="-99.8" font-family="Times,serif" font-size="14.00" fill="#000000">ProgressBarComponent</text>
</g>
<!-- ProgressBarComponent&#45;&gt;AppModule -->
<g id="edge4" class="edge">
<title>ProgressBarComponent&#45;&gt;AppModule</title>
<path fill="none" stroke="#000000" d="M594,-122.1061C594,-122.1061 594,-140.991 594,-140.991"/>
<polygon fill="#000000" stroke="#000000" points="590.5001,-140.9909 594,-150.991 597.5001,-140.991 590.5001,-140.9909"/>
</g>
<!-- ScoreComponent -->
<g id="node5" class="node">
<title>ScoreComponent</title>
<polygon fill="#ffffb3" stroke="#000000" points="501.705,-122 388.295,-122 388.295,-86 501.705,-86 501.705,-122"/>
<text text-anchor="middle" x="445" y="-99.8" font-family="Times,serif" font-size="14.00" fill="#000000">ScoreComponent</text>
</g>
<!-- ScoreComponent&#45;&gt;AppModule -->
<g id="edge5" class="edge">
<title>ScoreComponent&#45;&gt;AppModule</title>
<path fill="none" stroke="#000000" d="M445,-122.027C445,-138.3976 445,-160 445,-160 445,-160 542.0987,-160 542.0987,-160"/>
<polygon fill="#000000" stroke="#000000" points="542.0987,-163.5001 552.0987,-160 542.0986,-156.5001 542.0987,-163.5001"/>
</g>
<!-- StatisticalTableComponent -->
<g id="node6" class="node">
<title>StatisticalTableComponent</title>
<polygon fill="#ffffb3" stroke="#000000" points="370.4199,-122 201.5801,-122 201.5801,-86 370.4199,-86 370.4199,-122"/>
<text text-anchor="middle" x="286" y="-99.8" font-family="Times,serif" font-size="14.00" fill="#000000">StatisticalTableComponent</text>
</g>
<!-- StatisticalTableComponent&#45;&gt;AppModule -->
<g id="edge6" class="edge">
<title>StatisticalTableComponent&#45;&gt;AppModule</title>
<path fill="none" stroke="#000000" d="M286,-122.1061C286,-141.3391 286,-169 286,-169 286,-169 542.1412,-169 542.1412,-169"/>
<polygon fill="#000000" stroke="#000000" points="542.1412,-172.5001 552.1412,-169 542.1412,-165.5001 542.1412,-172.5001"/>
</g>
<!-- ThemeToggleComponent -->
<g id="node7" class="node">
<title>ThemeToggleComponent</title>
<polygon fill="#ffffb3" stroke="#000000" points="183.8627,-122 24.1373,-122 24.1373,-86 183.8627,-86 183.8627,-122"/>
<text text-anchor="middle" x="104" y="-99.8" font-family="Times,serif" font-size="14.00" fill="#000000">ThemeToggleComponent</text>
</g>
<!-- ThemeToggleComponent&#45;&gt;AppModule -->
<g id="edge7" class="edge">
<title>ThemeToggleComponent&#45;&gt;AppModule</title>
<path fill="none" stroke="#000000" d="M104,-122.2921C104,-144.2057 104,-178 104,-178 104,-178 542.2229,-178 542.2229,-178"/>
<polygon fill="#000000" stroke="#000000" points="542.2229,-181.5001 552.2229,-178 542.2228,-174.5001 542.2229,-181.5001"/>
</g>
<!-- AppComponent  -->
<g id="node9" class="node">
<title>AppComponent </title>
<polygon fill="#80b1d3" stroke="#000000" points="648.439,-252 539.561,-252 539.561,-216 648.439,-216 648.439,-252"/>
<text text-anchor="middle" x="594" y="-229.8" font-family="Times,serif" font-size="14.00" fill="#000000">AppComponent </text>
</g>
<!-- AppModule&#45;&gt;AppComponent  -->
<g id="edge8" class="edge">
<title>AppModule&#45;&gt;AppComponent </title>
<path fill="none" stroke="#000000" stroke-dasharray="1,5" d="M594,-187.1061C594,-187.1061 594,-205.991 594,-205.991"/>
<polygon fill="#000000" stroke="#000000" points="590.5001,-205.9909 594,-215.991 597.5001,-205.991 590.5001,-205.9909"/>
</g>
</g>
</svg>
